<svg width="58" height="46" viewBox="0 0 58 46" fill="none" xmlns="http://www.w3.org/2000/svg">
<circle cx="29" cy="24" r="22" fill="#F1FAFF"/>
<path d="M27.4492 1.03114C27.9373 -0.343716 30.0627 -0.343714 30.5508 1.03115L33.21 8.52131C33.4283 9.13617 34.0544 9.55246 34.7608 9.55246H43.3663C44.9459 9.55246 45.6026 11.4023 44.3247 12.252L37.3627 16.8812C36.7912 17.2612 36.5521 17.9348 36.7704 18.5496L39.4296 26.0398C39.9178 27.4147 38.1983 28.5579 36.9204 27.7082L29.9584 23.0791C29.3869 22.6991 28.6131 22.6991 28.0416 23.0791L21.0796 27.7082C19.8017 28.5579 18.0822 27.4147 18.5704 26.0398L21.2296 18.5496C21.4479 17.9348 21.2088 17.2612 20.6373 16.8812L13.6753 12.252C12.3974 11.4023 13.0541 9.55246 14.6337 9.55246H23.2392C23.9456 9.55246 24.5717 9.13617 24.79 8.52131L27.4492 1.03114Z" fill="#FFC700"/>
<path d="M8.12769 15.5892C8.40226 14.8036 9.59775 14.8036 9.87231 15.5892L11.3681 19.8693C11.4909 20.2207 11.8431 20.4585 12.2405 20.4585H17.081C17.9696 20.4585 18.339 21.5156 17.6202 22.0012L13.704 24.6464C13.3826 24.8635 13.2481 25.2484 13.3708 25.5998L14.8667 29.8799C15.1412 30.6655 14.1741 31.3188 13.4552 30.8333L9.53912 28.188C9.21765 27.9709 8.78235 27.9709 8.46088 28.188L4.54476 30.8333C3.82594 31.3188 2.85877 30.6655 3.13333 29.8799L4.62916 25.5998C4.75195 25.2484 4.61743 24.8635 4.29596 24.6464L0.379842 22.0012C-0.338982 21.5156 0.0304462 20.4585 0.918962 20.4585H5.75955C6.15691 20.4585 6.50907 20.2207 6.63186 19.8693L8.12769 15.5892Z" fill="#FFC700"/>
<path d="M48.1277 15.5892C48.4023 14.8036 49.5977 14.8036 49.8723 15.5892L51.3681 19.8693C51.4909 20.2207 51.8431 20.4585 52.2405 20.4585H57.081C57.9696 20.4585 58.339 21.5156 57.6202 22.0012L53.704 24.6464C53.3826 24.8635 53.2481 25.2484 53.3708 25.5998L54.8667 29.8799C55.1412 30.6655 54.1741 31.3188 53.4552 30.8333L49.5391 28.188C49.2177 27.9709 48.7824 27.9709 48.4609 28.188L44.5448 30.8333C43.8259 31.3188 42.8588 30.6655 43.1333 29.8799L44.6292 25.5998C44.7519 25.2484 44.6174 24.8635 44.296 24.6464L40.3798 22.0012C39.661 21.5156 40.0304 20.4585 40.919 20.4585H45.7596C46.1569 20.4585 46.5091 20.2207 46.6319 19.8693L48.1277 15.5892Z" fill="#FFC700"/>
<path d="M20.2246 30.5156C20.4687 29.8281 21.5313 29.8281 21.7754 30.5156L23.105 34.2607C23.2142 34.5681 23.5272 34.7762 23.8804 34.7762H28.1831C28.9729 34.7762 29.3013 35.7012 28.6624 36.126L25.1814 38.4406C24.8956 38.6306 24.776 38.9674 24.8852 39.2748L26.2148 43.0199C26.4589 43.7073 25.5992 44.279 24.9602 43.8541L21.4792 41.5395C21.1935 41.3495 20.8065 41.3495 20.5208 41.5395L17.0398 43.8541C16.4008 44.279 15.5411 43.7073 15.7852 43.0199L17.1148 39.2748C17.224 38.9674 17.1044 38.6306 16.8186 38.4406L13.3376 36.126C12.6987 35.7012 13.0271 34.7762 13.8169 34.7762H18.1196C18.4728 34.7762 18.7858 34.5681 18.895 34.2607L20.2246 30.5156Z" fill="#FFC700"/>
<path d="M37.2246 30.5156C37.4687 29.8281 38.5313 29.8281 38.7754 30.5156L40.105 34.2607C40.2142 34.5681 40.5272 34.7762 40.8804 34.7762H45.1831C45.9729 34.7762 46.3013 35.7012 45.6624 36.126L42.1814 38.4406C41.8956 38.6306 41.776 38.9674 41.8852 39.2748L43.2148 43.0199C43.4589 43.7073 42.5992 44.279 41.9602 43.8541L38.4792 41.5395C38.1935 41.3495 37.8065 41.3495 37.5208 41.5395L34.0398 43.8541C33.4008 44.279 32.5411 43.7073 32.7852 43.0199L34.1148 39.2748C34.224 38.9674 34.1044 38.6306 33.8186 38.4406L30.3376 36.126C29.6987 35.7012 30.0271 34.7762 30.8169 34.7762H35.1196C35.4728 34.7762 35.7858 34.5681 35.895 34.2607L37.2246 30.5156Z" fill="#FFC700"/>
</svg>
