<svg width="56" height="51" viewBox="0 0 56 51" fill="none" xmlns="http://www.w3.org/2000/svg">
<circle cx="28" cy="27" r="22" fill="#F1FAFF"/>
<path d="M26.3008 1.16196C26.8356 -0.387323 29.164 -0.38732 29.6988 1.16197L32.6121 9.6024C32.8513 10.2953 33.5372 10.7644 34.3111 10.7644H43.739C45.4695 10.7644 46.1891 12.8489 44.789 13.8064L37.1617 19.0229C36.5356 19.4511 36.2736 20.2101 36.5128 20.903L39.4261 29.3434C39.9609 30.8927 38.0772 32.1811 36.6771 31.2235L29.0498 26.0071C28.4237 25.5789 27.5759 25.5789 26.9497 26.0071L19.3224 31.2235C17.9224 32.1811 16.0386 30.8927 16.5734 29.3434L19.4868 20.903C19.7259 20.2101 19.464 19.4511 18.8378 19.0229L11.2105 13.8064C9.81048 12.8489 10.53 10.7644 12.2605 10.7644H21.6884C22.4624 10.7644 23.1483 10.2953 23.3874 9.6024L26.3008 1.16196Z" fill="#FFC700"/>
<path d="M27.0259 34.0664C27.3324 33.2031 28.6669 33.2031 28.9734 34.0664L30.6431 38.7695C30.7802 39.1556 31.1733 39.417 31.6169 39.417H37.0203C38.0122 39.417 38.4245 40.5785 37.6221 41.1121L33.2507 44.0188C32.8918 44.2574 32.7417 44.6803 32.8787 45.0664L34.5485 49.7695C34.855 50.6328 33.7753 51.3507 32.9729 50.8171L28.6014 47.9104C28.2426 47.6718 27.7567 47.6718 27.3978 47.9104L23.0263 50.8171C22.2239 51.3507 21.1443 50.6328 21.4508 49.7695L23.1206 45.0664C23.2576 44.6803 23.1075 44.2574 22.7486 44.0188L18.3771 41.1121C17.5747 40.5785 17.9871 39.417 18.9789 39.417H24.3824C24.826 39.417 25.2191 39.1556 25.3561 38.7695L27.0259 34.0664Z" fill="#FFC700"/>
<path d="M9.07277 28.6475C9.37926 27.7842 10.7138 27.7842 11.0203 28.6475L12.69 33.3506C12.8271 33.7367 13.2202 33.9981 13.6638 33.9981H19.0672C20.059 33.9981 20.4714 35.1596 19.669 35.6931L15.2975 38.5998C14.9387 38.8384 14.7885 39.2614 14.9256 39.6474L16.5954 44.3506C16.9018 45.2139 15.8222 45.9317 15.0198 45.3982L10.6483 42.4915C10.2895 42.2529 9.80355 42.2529 9.44471 42.4915L5.07322 45.3982C4.27081 45.9317 3.19118 45.2139 3.49767 44.3506L5.16743 39.6474C5.3045 39.2614 5.15434 38.8384 4.79549 38.5998L0.42401 35.6931C-0.378399 35.1596 0.0339864 33.9981 1.02582 33.9981H6.42927C6.87283 33.9981 7.26594 33.7367 7.40301 33.3506L9.07277 28.6475Z" fill="#FFC700"/>
<path d="M44.0728 28.6475C44.3793 27.7842 45.7138 27.7842 46.0203 28.6475L47.69 33.3506C47.8271 33.7367 48.2202 33.9981 48.6638 33.9981H54.0672C55.059 33.9981 55.4714 35.1596 54.669 35.6931L50.2975 38.5998C49.9387 38.8384 49.7885 39.2614 49.9256 39.6474L51.5954 44.3506C51.9018 45.2139 50.8222 45.9317 50.0198 45.3982L45.6483 42.4915C45.2895 42.2529 44.8036 42.2529 44.4447 42.4915L40.0732 45.3982C39.2708 45.9317 38.1912 45.2139 38.4977 44.3506L40.1674 39.6474C40.3045 39.2614 40.1543 38.8384 39.7955 38.5998L35.424 35.6931C34.6216 35.1596 35.034 33.9981 36.0258 33.9981H41.4293C41.8728 33.9981 42.2659 33.7367 42.403 33.3506L44.0728 28.6475Z" fill="#FFC700"/>
</svg>
