<svg width="44" height="49" viewBox="0 0 44 49" fill="none" xmlns="http://www.w3.org/2000/svg">
<circle cx="22" cy="27" r="22" fill="#F1FAFF"/>
<path d="M20.3008 1.16196C20.8356 -0.387323 23.164 -0.38732 23.6988 1.16197L26.6121 9.6024C26.8513 10.2953 27.5372 10.7644 28.3111 10.7644H37.739C39.4695 10.7644 40.1891 12.8489 38.789 13.8064L31.1617 19.0229C30.5356 19.4511 30.2736 20.2101 30.5128 20.903L33.4261 29.3434C33.9609 30.8927 32.0772 32.1811 30.6771 31.2235L23.0498 26.0071C22.4237 25.5789 21.5759 25.5789 20.9497 26.0071L13.3224 31.2235C11.9224 32.1811 10.0386 30.8927 10.5734 29.3434L13.4868 20.903C13.7259 20.2101 13.464 19.4511 12.8378 19.0229L5.21051 13.8064C3.81048 12.8489 4.53 10.7644 6.26054 10.7644H15.6884C16.4624 10.7644 17.1483 10.2953 17.3874 9.6024L20.3008 1.16196Z" fill="#FFC700"/>
</svg>
