<svg width="55" height="52" viewBox="0 0 55 52" fill="none" xmlns="http://www.w3.org/2000/svg">
<circle cx="27" cy="30" r="22" fill="#F1FAFF"/>
<path d="M25.3008 1.16196C25.8356 -0.387323 28.164 -0.38732 28.6988 1.16197L31.6121 9.6024C31.8513 10.2953 32.5372 10.7644 33.3111 10.7644H42.739C44.4695 10.7644 45.1891 12.8489 43.789 13.8064L36.1617 19.0229C35.5356 19.4511 35.2736 20.2101 35.5128 20.903L38.4261 29.3434C38.9609 30.8927 37.0772 32.1811 35.6771 31.2235L28.0498 26.0071C27.4237 25.5789 26.5759 25.5789 25.9497 26.0071L18.3224 31.2235C16.9224 32.1811 15.0386 30.8927 15.5734 29.3434L18.4868 20.903C18.7259 20.2101 18.464 19.4511 17.8378 19.0229L10.2105 13.8064C8.81048 12.8489 9.53 10.7644 11.2605 10.7644H20.6884C21.4624 10.7644 22.1483 10.2953 22.3874 9.6024L25.3008 1.16196Z" fill="#FFC700"/>
<path d="M10.7739 28.7862C11.1379 27.7379 12.7226 27.7379 13.0866 28.7862L15.0694 34.4971C15.2322 34.9659 15.699 35.2834 16.2257 35.2834H22.6423C23.8201 35.2834 24.3098 36.6938 23.357 37.3417L18.1658 40.8712C17.7397 41.161 17.5614 41.6745 17.7241 42.1433L19.707 47.8543C20.0709 48.9025 18.7889 49.7742 17.836 49.1264L12.6449 45.5968C12.2187 45.3071 11.6417 45.3071 11.2156 45.5968L6.02445 49.1264C5.07159 49.7742 3.78953 48.9025 4.15349 47.8543L6.13632 42.1433C6.29909 41.6745 6.12078 41.161 5.69465 40.8712L0.503512 37.3417C-0.449349 36.6938 0.0403588 35.2834 1.21816 35.2834H7.63476C8.16148 35.2834 8.62831 34.9659 8.79108 34.4971L10.7739 28.7862Z" fill="#FFC700"/>
<path d="M41.7739 28.7862C42.1379 27.7379 43.7226 27.7379 44.0866 28.7862L46.0694 34.4971C46.2322 34.966 46.699 35.2834 47.2257 35.2834H53.6423C54.8201 35.2834 55.3098 36.6938 54.357 37.3417L49.1658 40.8712C48.7397 41.161 48.5614 41.6745 48.7241 42.1433L50.707 47.8543C51.0709 48.9025 49.7889 49.7742 48.836 49.1264L43.6449 45.5968C43.2187 45.3071 42.6417 45.3071 42.2156 45.5968L37.0245 49.1264C36.0716 49.7742 34.7895 48.9025 35.1535 47.8543L37.1363 42.1433C37.2991 41.6745 37.1208 41.161 36.6946 40.8712L31.5035 37.3417C30.5507 36.6938 31.0404 35.2834 32.2182 35.2834H38.6348C39.1615 35.2834 39.6283 34.9659 39.7911 34.4971L41.7739 28.7862Z" fill="#FFC700"/>
</svg>
