<svg width="46" height="48" viewBox="0 0 46 48" fill="none" xmlns="http://www.w3.org/2000/svg">
<circle cx="24" cy="26" r="22" fill="#F1FAFF"/>
<path d="M15.8301 1.16196C16.3649 -0.387323 18.6933 -0.38732 19.2281 1.16197L22.1414 9.6024C22.3806 10.2953 23.0665 10.7644 23.8404 10.7644H33.2683C34.9988 10.7644 35.7184 12.8489 34.3183 13.8064L26.691 19.0229C26.0649 19.4511 25.8029 20.2101 26.0421 20.903L28.9554 29.3434C29.4902 30.8927 27.6065 32.1811 26.2064 31.2235L18.5791 26.0071C17.953 25.5789 17.1052 25.5789 16.479 26.0071L8.85172 31.2235C7.45168 32.1811 5.56794 30.8927 6.10271 29.3434L9.01609 20.903C9.25525 20.2101 8.99325 19.4511 8.36714 19.0229L0.739809 13.8064C-0.660227 12.8489 0.0592993 10.7644 1.78984 10.7644H11.2177C11.9917 10.7644 12.6776 10.2953 12.9167 9.6024L15.8301 1.16196Z" fill="#FFC700"/>
<path d="M32.7739 27.1583C33.1379 26.11 34.7226 26.11 35.0866 27.1583L37.0694 32.8692C37.2322 33.338 37.699 33.6554 38.2257 33.6554H44.6423C45.8201 33.6554 46.3098 35.0659 45.357 35.7137L40.1658 39.2433C39.7397 39.533 39.5614 40.0466 39.7241 40.5154L41.707 46.2263C42.0709 47.2746 40.7889 48.1463 39.836 47.4984L34.6449 43.9689C34.2187 43.6792 33.6417 43.6792 33.2156 43.9689L28.0245 47.4984C27.0716 48.1463 25.7895 47.2746 26.1535 46.2263L28.1363 40.5154C28.2991 40.0466 28.1208 39.533 27.6946 39.2433L22.5035 35.7137C21.5507 35.0659 22.0404 33.6554 23.2182 33.6554H29.6348C30.1615 33.6554 30.6283 33.338 30.7911 32.8692L32.7739 27.1583Z" fill="#FFC700"/>
</svg>
