<svg width="19" height="20" viewBox="0 0 19 20" fill="none" xmlns="http://www.w3.org/2000/svg">
<path d="M9.48023 0.854905C9.39573 0.858931 9.31865 0.891769 9.23635 0.940965L0.166662 8.1446C0.0257932 8.25187 -0.0364186 8.45364 0.0216527 8.62131C0.0797219 8.78905 0.253592 8.90974 0.430316 8.90603H2.32862V17.3809H0.430316C0.201433 17.3809 0.0136545 17.6138 0.00847005 17.8046V19.4996C0.00849115 19.7215 0.209444 19.9233 0.430316 19.9234H18.5697C18.7906 19.9233 18.9915 19.7215 18.9915 19.4996V17.8046C18.9915 17.5828 18.7906 17.3809 18.5697 17.3809H17.0932V8.90603H18.5697C18.7464 8.90963 18.9203 8.78905 18.9783 8.62131C19.0364 8.45364 18.9742 8.25187 18.8333 8.1446L9.76365 0.940965C9.65664 0.875751 9.56472 0.850901 9.48023 0.854905ZM9.49999 1.82157L17.3569 8.05854H1.64311L9.49999 1.82157ZM9.5 4.03298C8.68957 4.03298 8.02354 4.70201 8.02354 5.51608C8.02354 6.33016 8.68957 6.99918 9.5 6.99918C10.3104 6.99918 10.9765 6.33016 10.9765 5.51608C10.9765 4.70201 10.3104 4.03298 9.5 4.03298ZM9.5 4.88047C9.85447 4.88047 10.1328 5.16003 10.1328 5.51608C10.1328 5.87213 9.85447 6.1517 9.5 6.1517C9.14554 6.1517 8.86723 5.87213 8.86723 5.51608C8.86723 5.16003 9.14554 4.88047 9.5 4.88047ZM3.17231 8.90603H4.01601V17.3809H3.17231V8.90603ZM4.8597 8.90603H14.5622V17.3809H4.8597V8.90603ZM15.4058 8.90603H16.2495V17.3809H15.4058V8.90603ZM6.92938 9.54164C6.70847 9.55202 6.54708 9.75355 6.54708 9.96537C6.54708 10.1875 6.74802 10.3996 6.96893 10.3891H7.39077V12.9316H6.96893C6.74606 12.9284 6.54708 13.1315 6.54708 13.3553C6.54708 13.5792 6.74606 13.7823 6.96893 13.7791H7.39077V14.6266H6.96893C6.73595 14.6266 6.54708 14.8163 6.54708 15.0503C6.54708 15.2843 6.73595 15.4741 6.96893 15.4741H7.39077V16.3215C7.38763 16.5454 7.58973 16.7453 7.81262 16.7453C8.03551 16.7453 8.23761 16.5454 8.23446 16.3215V15.4741H10.7655C10.9985 15.4741 11.1874 15.2843 11.1874 15.0503C11.1874 14.8163 10.9985 14.6266 10.7655 14.6266H8.23446V13.7791H10.3437C11.4823 13.7791 12.4529 12.8357 12.4529 11.6604C12.4529 10.485 11.4823 9.54164 10.3437 9.54164H6.92938ZM8.23446 10.3891H10.3437C11.0144 10.3891 11.6092 10.958 11.6092 11.6604C11.6092 12.3627 11.0144 12.9316 10.3437 12.9316H8.23446V10.3891ZM0.852162 18.2284H18.1478V19.0759H0.852162V18.2284Z" fill="#FF7A00"/>
</svg>
