<svg enable-background="new 0 0 322.4 271.9" viewBox="0 0 322.4 271.9" xmlns="http://www.w3.org/2000/svg"><path d="m133.8.1c32.5.2 59.1 9.2 83 26.5 4.3 3.1 7.9 6.7 8.4 12.4.6 6.5-1.7 11.9-7.5 15.2-6.1 3.5-12.2 2.9-17.8-1.3-11.3-8.5-23.7-14.7-37.4-18.2-58.9-15.2-118.2 22.4-129.5 82.2-11 58 29.3 114.7 87.7 123 28.8 4.1 55.1-2.5 78.6-19.8 7.1-5.3 14.4-5.4 20.2-.5 5.9 4.9 7.6 12.2 4.5 18.9-1.3 2.8-3.5 4.8-5.9 6.6-21.5 16-45.5 24.9-72.3 26.9-62.3 4.6-119.2-34.3-138.7-92.6-26-77.6 22.2-160.8 102.4-176.8 8.9-1.8 18-2.9 24.3-2.5z" fill="#007aff"/><path d="m188.3 151.9c-12.3 0-24.3.2-36.2 0-12.6-.2-19.9-13.5-13.3-23.9 3.2-5.1 8-7.4 13.9-7.5 18-.1 35.9-.3 53.9 0 9.6.1 15.7 6.9 15.8 16.4.4 43.8-35.3 81.7-79 85.2-43.5 3.5-85.7-26.8-92.2-73.7-7.2-51.6 29-91.8 72.5-97.4 20.2-2.6 39 .9 56.6 11.2 8.8 5.2 11.6 14.1 7.1 22-4.6 8.1-13.9 10.1-22.9 5.1-18.6-10.4-37.5-10.9-55.9-.1s-27.3 27.7-27 49c.4 26.4 20.9 48.3 48.5 52.4 24.1 3.6 49.9-12.7 57.8-36.4.1-.5.2-1 .4-2.3z" fill="#0523bf"/><g fill="#58bafc"><path d="m322.4 136.7c.3 29.5-6.6 57.2-19.9 83.5-3.3 6.5-8.8 9.3-15.9 8.6-5.9-.6-10.8-4.9-12.8-11.1-1.3-4.3-.3-8.2 1.6-12 11-21.6 16.3-44.7 16.4-68.7.2-24.5-5.3-48.1-16.3-70.2-5.2-10.5-.5-20.6 10.6-23.1 6-1.4 13.1 1.9 16.2 8 9.9 19.2 16 39.6 18.8 61.1 1.1 7.9 1.1 15.9 1.3 23.9z"/><path d="m272.2 139.1c-.3 16.8-4.1 35.5-12.2 53.3-3.4 7.3-10.8 10.9-18 9.1-7.1-1.8-12.1-8.7-11.6-16 .2-2.4 1-4.5 1.9-6.7 12.1-28.6 12.1-57.1-.2-85.6-3.9-9.1-.8-17.7 7.5-21.4 8.4-3.7 17 .1 21 9.4 7.8 18.1 11.6 36.3 11.6 57.9z"/></g></svg>