<svg width="32" height="31" viewBox="0 0 32 31" fill="none" xmlns="http://www.w3.org/2000/svg">
<path fill-rule="evenodd" clip-rule="evenodd" d="M16.0001 1.39619e-09C15.4478 7.51158e-06 15.0001 0.447721 15.0001 1V7.60317C15.0001 8.15545 15.4478 8.60317 16.0001 8.60317C16.5524 8.60317 17.0001 8.15545 17.0001 7.60317V2.03805C19.6838 2.24264 22.2492 3.2671 24.3422 4.98472C26.6939 6.91467 28.3037 9.60034 28.8972 12.5841C29.4908 15.5679 29.0314 18.6652 27.5973 21.3482C26.1632 24.0312 23.8432 26.134 21.0326 27.2983C18.2219 28.4625 15.0945 28.6162 12.1833 27.7331C9.272 26.85 6.75701 24.9848 5.0668 22.4553C3.3766 19.9258 2.61575 16.8885 2.91392 13.8609C3.21208 10.8333 4.55079 8.00274 6.70196 5.85153C7.09248 5.461 7.09248 4.82784 6.70195 4.43732C6.31142 4.0468 5.67826 4.0468 5.28774 4.43733C2.80938 6.91573 1.26705 10.1768 0.923544 13.6649C0.580034 17.153 1.4566 20.6522 3.40387 23.5665C5.35115 26.4807 8.24866 28.6296 11.6027 29.647C14.9568 30.6644 18.5598 30.4874 21.7979 29.146C25.0361 27.8047 27.709 25.3821 29.3611 22.291C31.0133 19.1999 31.5426 15.6315 30.8588 12.1939C30.1749 8.75631 28.3203 5.66217 25.6109 3.43869C22.9015 1.2152 19.505 -4.75631e-05 16.0001 1.39619e-09ZM15.4422 15.7416L9.79723 8.94711L16.5828 14.5846C16.7413 14.7242 16.8396 14.9197 16.857 15.1303C16.8746 15.3435 16.8079 15.5551 16.6711 15.7196C16.5344 15.8842 16.3386 15.9885 16.1258 16.0102C15.9168 16.0315 15.7078 15.9715 15.542 15.8428C15.5093 15.8146 15.4787 15.7841 15.4503 15.7516L15.4422 15.7416ZM9.31204 6.60491C9.79727 6.58262 10.2733 6.74236 10.6469 7.05282L10.647 7.05294L10.6471 7.05302L17.8698 13.0537L17.8846 13.0662C18.4427 13.5485 18.7895 14.2305 18.8502 14.9657C18.9109 15.7009 18.6808 16.4306 18.2093 16.9979C17.7378 17.5653 17.0626 17.925 16.3287 17.9999C15.5948 18.0747 14.8609 17.8587 14.2846 17.3982L14.2666 17.3835C14.1362 17.2742 14.0157 17.1537 13.9064 17.0233C13.9003 17.016 13.8943 17.0086 13.8883 17.0011L7.90314 9.797L7.90307 9.79691L7.90294 9.79675C7.59248 9.4232 7.43274 8.94715 7.45503 8.46192C7.47734 7.97659 7.68014 7.5171 8.02368 7.17356C8.36722 6.83002 8.82671 6.62721 9.31204 6.60491Z" fill="#103045"/>
</svg>
