<svg width="31" height="27" viewBox="0 0 31 27" fill="none" xmlns="http://www.w3.org/2000/svg">
<path fill-rule="evenodd" clip-rule="evenodd" d="M1 0C0.447715 0 0 0.447715 0 1V19.8662C0 20.4185 0.447715 20.8662 1 20.8662H8.4898V25.0544C8.4898 25.451 8.72414 25.8101 9.08714 25.9698C9.45014 26.1295 9.8732 26.0596 10.1655 25.7916L15.5387 20.8662H29.2993C29.8516 20.8662 30.2993 20.4185 30.2993 19.8662V1C30.2993 0.447715 29.8516 0 29.2993 0H1ZM2 18.8662V2H28.2993V18.8662H15.1497C14.8995 18.8662 14.6584 18.96 14.4739 19.1291L10.4898 22.7812V19.8662C10.4898 19.3139 10.0421 18.8662 9.4898 18.8662H2ZM9.54625 10.4331C9.54625 10.4645 9.52087 10.4898 9.48956 10.4898C9.45825 10.4898 9.43287 10.4645 9.43287 10.4331C9.43287 10.4018 9.45825 10.3765 9.48956 10.3765C9.52087 10.3765 9.54625 10.4018 9.54625 10.4331ZM9.48956 8.48984C8.4163 8.48984 7.54625 9.35989 7.54625 10.4331C7.54625 11.5064 8.4163 12.3765 9.48956 12.3765C10.5628 12.3765 11.4329 11.5064 11.4329 10.4331C11.4329 9.35989 10.5628 8.48984 9.48956 8.48984ZM15.1497 10.4898C15.181 10.4898 15.2063 10.4645 15.2063 10.4331C15.2063 10.4018 15.181 10.3765 15.1497 10.3765C15.1183 10.3765 15.093 10.4018 15.093 10.4331C15.093 10.4645 15.1183 10.4898 15.1497 10.4898ZM13.2063 10.4331C13.2063 9.35989 14.0764 8.48984 15.1497 8.48984C16.2229 8.48984 17.093 9.35989 17.093 10.4331C17.093 11.5064 16.2229 12.3765 15.1497 12.3765C14.0764 12.3765 13.2063 11.5064 13.2063 10.4331ZM20.8663 10.4331C20.8663 10.4645 20.841 10.4898 20.8097 10.4898C20.7783 10.4898 20.753 10.4645 20.753 10.4331C20.753 10.4018 20.7783 10.3765 20.8097 10.3765C20.841 10.3765 20.8663 10.4018 20.8663 10.4331ZM20.8097 8.48984C19.7364 8.48984 18.8663 9.35989 18.8663 10.4331C18.8663 11.5064 19.7364 12.3765 20.8097 12.3765C21.8829 12.3765 22.753 11.5064 22.753 10.4331C22.753 9.35989 21.8829 8.48984 20.8097 8.48984Z" fill="#CC3752"/>
</svg>
