<svg width="32" height="31" viewBox="0 0 32 31" fill="none" xmlns="http://www.w3.org/2000/svg">
<path fill-rule="evenodd" clip-rule="evenodd" d="M8.14777 11.331H12.1669V2.2213C11.3365 2.5879 10.497 3.41899 9.77071 4.78122C8.88312 6.44605 8.27346 8.73266 8.14777 11.331ZM14.1669 2.2213V11.331H18.186C18.0604 8.73266 17.4507 6.44605 16.5631 4.78122C15.8368 3.41899 14.9973 2.5879 14.1669 2.2213ZM18.1819 13.331C18.1512 13.9029 18.0953 14.4732 18.0146 15.0404C16.2085 16.1224 14.9996 18.0986 14.9996 20.3571C14.9996 20.8522 15.0577 21.3337 15.1674 21.7952C14.9502 21.9976 14.7056 22.1699 14.4402 22.3066C14.3509 22.3526 14.2597 22.3944 14.1669 22.4318V13.331H18.1819ZM21.193 14.1637C20.8268 14.1637 20.4681 14.1955 20.1194 14.2564C20.1478 13.9485 20.1695 13.6399 20.1845 13.331H23.463C23.4246 13.7307 23.3629 14.1289 23.2777 14.5233C22.6263 14.2905 21.9244 14.1637 21.193 14.1637ZM24.7701 8.13535C25.6353 10.5185 25.7429 13.1045 25.0883 15.5418C26.4902 16.6773 27.3863 18.4125 27.3863 20.3571C27.3863 21.7064 26.9548 22.955 26.2223 23.9723L30.8703 28.6203C31.2609 29.0109 31.2609 29.644 30.8703 30.0346C30.4798 30.4251 29.8467 30.4251 29.4561 30.0346L24.808 25.3865C23.7908 26.119 22.5423 26.5504 21.193 26.5504C19.2484 26.5504 17.5131 25.6543 16.3777 24.2524C13.9404 24.907 11.3544 24.7993 8.97128 23.9341C6.36094 22.9864 4.14691 21.1854 2.68774 18.8225C1.50712 16.9108 0.876607 14.7218 0.849281 12.4947C0.840503 12.4414 0.835938 12.3867 0.835938 12.331C0.835938 12.2744 0.84063 12.219 0.849646 12.165C0.855672 11.7488 0.882797 11.3317 0.931364 10.9152C1.25302 8.15681 2.49635 5.58777 4.46003 3.62409C6.42371 1.66042 8.99274 0.417079 11.7511 0.0954268C12.0828 0.0567494 12.4149 0.031671 12.7466 0.0200174C12.8848 0.00677156 13.025 0 13.1669 0C13.3041 0 13.4396 0.00632697 13.5734 0.0187125C15.7166 0.0872363 17.8162 0.714102 19.6585 1.85181C22.0213 3.31097 23.8224 5.525 24.7701 8.13535ZM12.1669 13.331H8.14777C8.27346 15.9293 8.88312 18.2159 9.77071 19.8807C10.497 21.2429 11.3365 22.074 12.1669 22.4406V13.331ZM8.39996 21.5024C8.2617 21.2823 8.13026 21.055 8.00586 20.8216C6.94391 18.8297 6.27257 16.2094 6.14567 13.331H2.89567C3.04604 14.8965 3.55292 16.4171 4.38941 17.7717C5.37062 19.3605 6.75924 20.6462 8.39996 21.5024ZM17.945 3.17727C18.0792 3.39179 18.2069 3.61323 18.328 3.84031C19.3899 5.8322 20.0612 8.45251 20.1881 11.331H23.4606C23.3766 10.4783 23.1864 9.63387 22.8901 8.81787C22.0961 6.6309 20.5872 4.77597 18.6076 3.55347C18.3908 3.41959 18.1698 3.29415 17.945 3.17727ZM8.37682 3.19656C8.24701 3.40506 8.1233 3.62003 8.00586 3.84031C6.94391 5.8322 6.27257 8.45251 6.14567 11.331H2.8981C2.90415 11.2696 2.91075 11.2082 2.9179 11.1468C3.18739 8.83584 4.22906 6.68349 5.87424 5.03831C6.61599 4.29656 7.46083 3.67749 8.37682 3.19656ZM21.193 16.1637C18.877 16.1637 16.9996 18.0412 16.9996 20.3571C16.9996 22.673 18.877 24.5504 21.193 24.5504C23.5089 24.5504 25.3863 22.673 25.3863 20.3571C25.3863 18.0412 23.5089 16.1637 21.193 16.1637Z" fill="#CC3752"/>
</svg>
