<svg width="32" height="32" viewBox="0 0 32 32" fill="none" xmlns="http://www.w3.org/2000/svg">
<path d="M15.9997 1L1.03873 16.4748C1.02055 16.4923 1.00803 16.5149 1.00277 16.5396C0.997516 16.5643 0.999769 16.59 1.00924 16.6134C1.01871 16.6368 1.03497 16.6569 1.05592 16.6709C1.07687 16.685 1.10156 16.6925 1.12681 16.6925H4.86314V30.3601H12.4563V21.7546H19.5432V30.3601H27.1364V16.6925H30.8732C30.8984 16.6925 30.9231 16.685 30.9441 16.6709C30.965 16.6569 30.9813 16.6368 30.9908 16.6134C31.0002 16.59 31.0025 16.5643 30.9972 16.5396C30.992 16.5149 30.9795 16.4923 30.9613 16.4748L15.9997 1Z" stroke="#103045" stroke-width="2" stroke-miterlimit="10" stroke-linecap="round" stroke-linejoin="round"/>
</svg>
