<svg width="31" height="31" viewBox="0 0 31 31" fill="none" xmlns="http://www.w3.org/2000/svg">
<path fill-rule="evenodd" clip-rule="evenodd" d="M2.75338 15.0904C2.75338 7.82434 8.64368 1.93405 15.9097 1.93405C23.1758 1.93405 29.0661 7.82434 29.0661 15.0904C29.0661 18.9813 27.377 22.4777 24.6921 24.8864C24.1453 24.6165 23.5633 24.4219 22.9617 24.3088L22.9591 24.3083C21.1093 23.9657 20.4017 23.5294 20.1385 23.2597C19.9472 23.0637 19.9368 22.9183 19.9368 22.5757V22.5073C20.7413 21.6651 21.3502 20.6562 21.7207 19.5532C22.0094 19.4132 22.2404 19.2059 22.4149 18.991C22.7112 18.6262 22.8962 18.1848 23.016 17.808C23.2558 17.0544 23.3264 16.2598 23.3264 15.9848L23.3266 15.9443C23.3284 15.745 23.3333 15.1758 23.1518 14.6393C23.0491 14.3356 22.8667 13.9756 22.5324 13.6887C22.5003 13.661 22.4673 13.6346 22.4335 13.6094C22.8437 12.1091 22.8497 10.7456 22.4947 9.56489C22.0655 8.13768 21.1323 7.06039 19.9291 6.38958C17.6159 5.09991 14.393 5.33392 11.6785 7.12647C11.0315 7.19884 10.4806 7.49003 10.0639 7.9605C9.60724 8.47604 9.36447 9.1451 9.2438 9.81742C9.04664 10.9159 9.13593 12.2446 9.40438 13.5675C9.34396 13.6092 9.28591 13.6546 9.23038 13.7035C8.89965 13.995 8.72008 14.3581 8.61912 14.661C8.4389 15.2016 8.44404 15.7684 8.44568 15.95L8.44592 15.9848C8.44592 16.2533 8.5332 17.0483 8.77555 17.7955C8.89736 18.1711 9.08185 18.6105 9.36912 18.9742C9.53549 19.1848 9.76112 19.398 10.0481 19.544C10.4253 20.6735 11.0521 21.7044 11.8826 22.5594V22.6228C11.8826 22.9653 11.8722 23.1107 11.6809 23.3068C11.4182 23.576 10.7125 24.0113 8.86963 24.3536C8.2685 24.453 7.68528 24.6354 7.13637 24.8945C4.44623 22.4856 2.75338 18.9857 2.75338 15.0904ZM6.37683 26.789C6.39351 26.8036 6.41063 26.8174 6.42814 26.8307C9.01925 28.9259 12.3179 30.1808 15.9097 30.1808C19.502 30.1808 22.8011 28.9256 25.3924 26.8298C25.409 26.8172 25.4253 26.804 25.4412 26.7902C28.8338 24.023 31.0001 19.8097 31.0001 15.0904C31.0001 6.7562 24.2439 0 15.9097 0C7.57553 0 0.819336 6.7562 0.819336 15.0904C0.819336 19.8091 2.98511 24.0219 6.37683 26.789ZM22.858 26.2644C20.8417 27.5209 18.4605 28.2467 15.9097 28.2467C13.3793 28.2467 11.0157 27.5324 9.00966 26.2943C9.07032 26.2818 9.13128 26.2706 9.19251 26.2606L9.2124 26.2571C11.1758 25.8935 12.3749 25.3648 13.065 24.6576C13.8171 23.887 13.8168 23.0556 13.8167 22.6392L13.8166 22.6228V22.152C13.8166 21.882 13.7038 21.6243 13.5054 21.4413C12.6549 20.6567 12.0495 19.6429 11.762 18.5221C11.659 18.1208 11.3132 17.8327 10.9062 17.7987C10.9006 17.7924 10.8942 17.7847 10.8868 17.7753C10.8033 17.6696 10.7053 17.4765 10.6153 17.1989C10.5291 16.9331 10.4684 16.6477 10.4296 16.4051C10.4104 16.2853 10.3974 16.1813 10.3894 16.1018C10.3826 16.034 10.3807 15.9969 10.3801 15.9867C10.38 15.9837 10.38 15.9831 10.38 15.9848L10.38 15.965C10.3799 15.7663 10.3798 15.495 10.4539 15.2725C10.4737 15.2131 10.4919 15.1805 10.502 15.165C10.5109 15.1639 10.5241 15.1629 10.5428 15.1629C10.8424 15.1629 11.1251 15.024 11.3082 14.7868C11.4913 14.5497 11.5542 14.241 11.4784 13.9512C11.096 12.4891 10.9762 11.1132 11.1474 10.1591C11.2327 9.6839 11.3754 9.39669 11.5117 9.24284C11.6199 9.12058 11.7541 9.04275 12.0022 9.04275C12.2008 9.04275 12.3946 8.98159 12.5573 8.86759C14.8335 7.27207 17.3767 7.18089 18.9873 8.07883C19.779 8.52023 20.367 9.20543 20.6425 10.1218C20.9208 11.0471 20.9034 12.2898 20.3225 13.8604C20.2128 14.1571 20.2551 14.4888 20.4359 14.7485C20.6167 15.0081 20.9131 15.1629 21.2295 15.1629C21.2523 15.1629 21.2681 15.1642 21.2784 15.1657C21.2875 15.1801 21.3028 15.2087 21.3197 15.2589C21.352 15.3543 21.3734 15.4785 21.384 15.6191C21.393 15.7384 21.3927 15.8392 21.3924 15.935L21.3923 15.9848C21.3923 15.9845 21.3923 15.9881 21.3921 15.9961C21.3918 16.0038 21.3914 16.0142 21.3907 16.0273C21.3894 16.0537 21.387 16.0881 21.3835 16.1295C21.3763 16.2126 21.3647 16.3185 21.3472 16.4385C21.3118 16.682 21.2554 16.9628 21.173 17.2216C21.087 17.4922 20.9924 17.6746 20.9136 17.7718C20.9049 17.7824 20.8977 17.7906 20.8919 17.7969C20.4739 17.8206 20.1158 18.112 20.0105 18.5215C19.7272 19.6231 19.1366 20.6214 18.3076 21.4001C18.1131 21.5829 18.0027 21.838 18.0027 22.1049V22.5757L18.0027 22.5921C18.0026 23.0085 18.0023 23.8399 18.7543 24.6105C19.4443 25.3175 20.643 25.8462 22.6057 26.2098C22.6904 26.2257 22.7745 26.2439 22.858 26.2644ZM10.4873 15.1678C10.487 15.168 10.4869 15.168 10.4869 15.168C10.487 15.1681 10.4881 15.1678 10.49 15.167C10.4886 15.1674 10.4877 15.1677 10.4873 15.1678ZM21.2946 15.1695C21.2945 15.1696 21.293 15.1692 21.2906 15.1681C21.2935 15.1688 21.2947 15.1694 21.2946 15.1695Z" fill="#CC3752"/>
</svg>
