<svg width="87" height="158" viewBox="0 0 87 158" fill="none" xmlns="http://www.w3.org/2000/svg">
<g filter="url(#filter0_d)">
<path d="M71.0587 44.3198C69.0357 60.4555 54.3151 71.8961 38.1793 69.8731C22.0436 67.85 10.603 53.1294 12.626 36.9937C14.6491 20.8579 29.3697 9.41735 45.5054 11.4404" stroke="#FF7A00" stroke-width="8" stroke-linecap="round"/>
<path d="M33.2844 31.5779C32.0234 29.764 29.5307 29.3158 27.7168 30.5767C25.9029 31.8377 25.4547 34.3304 26.7156 36.1443L33.2844 31.5779ZM44 54L40.7156 56.2832C41.462 57.3568 42.686 57.9979 43.9935 58C45.3011 58.0021 46.5271 57.365 47.2769 56.2938L44 54ZM82.2769 6.29385C83.5438 4.48405 83.1036 1.98993 81.2938 0.723072C79.4841 -0.543786 76.9899 -0.103647 75.7231 1.70615L82.2769 6.29385ZM26.7156 36.1443L40.7156 56.2832L47.2844 51.7168L33.2844 31.5779L26.7156 36.1443ZM47.2769 56.2938L82.2769 6.29385L75.7231 1.70615L40.7231 51.7062L47.2769 56.2938Z" fill="#09A49A"/>
<path d="M52 92C52 90.8954 51.1046 90 50 90C48.8954 90 48 90.8954 48 92H52ZM48 110.5C48 111.605 48.8954 112.5 50 112.5C51.1046 112.5 52 111.605 52 110.5H48ZM48 92V110.5H52V92H48Z" fill="#FFC700"/>
<path d="M16 84C16 82.8954 15.1046 82 14 82C12.8954 82 12 82.8954 12 84H16ZM12 102.5C12 103.605 12.8954 104.5 14 104.5C15.1046 104.5 16 103.605 16 102.5H12ZM12 84V102.5H16V84H12Z" fill="#FFC700"/>
<path d="M28 98C28 96.8954 27.1046 96 26 96C24.8954 96 24 96.8954 24 98L28 98ZM24 130C24 131.105 24.8954 132 26 132C27.1046 132 28 131.105 28 130L24 130ZM24 98L24 130L28 130L28 98L24 98Z" fill="#09A49A"/>
<path d="M76 83C76 81.8954 75.1046 81 74 81C72.8954 81 72 81.8954 72 83H76ZM72 101.5C72 102.605 72.8954 103.5 74 103.5C75.1046 103.5 76 102.605 76 101.5H72ZM72 83V101.5H76V83H72Z" fill="#09A49A"/>
<path d="M40 92C40 90.8954 39.1046 90 38 90C36.8954 90 36 90.8954 36 92L40 92ZM36 148C36 149.105 36.8954 150 38 150C39.1046 150 40 149.105 40 148L36 148ZM36 92L36 148L40 148L40 92L36 92Z" fill="#FF7A00"/>
<path d="M64 99C64 97.8954 63.1046 97 62 97C60.8954 97 60 97.8954 60 99L64 99ZM60 130C60 131.105 60.8954 132 62 132C63.1046 132 64 131.105 64 130L60 130ZM60 99L60 130L64 130L64 99L60 99Z" fill="#FF7A00"/>
</g>
<defs>
<filter id="filter0_d" x="0.496094" y="0" width="86.5046" height="158" filterUnits="userSpaceOnUse" color-interpolation-filters="sRGB">
<feFlood flood-opacity="0" result="BackgroundImageFix"/>
<feColorMatrix in="SourceAlpha" type="matrix" values="0 0 0 0 0 0 0 0 0 0 0 0 0 0 0 0 0 0 127 0" result="hardAlpha"/>
<feOffset dy="4"/>
<feGaussianBlur stdDeviation="2"/>
<feComposite in2="hardAlpha" operator="out"/>
<feColorMatrix type="matrix" values="0 0 0 0 0 0 0 0 0 0 0 0 0 0 0 0 0 0 0.25 0"/>
<feBlend mode="normal" in2="BackgroundImageFix" result="effect1_dropShadow"/>
<feBlend mode="normal" in="SourceGraphic" in2="effect1_dropShadow" result="shape"/>
</filter>
</defs>
</svg>
