<svg width="375" height="177" viewBox="0 0 375 177" fill="none" xmlns="http://www.w3.org/2000/svg">
<g opacity="0.1">
<path d="M264.247 82.5613V113.22H221.252V82.6008L242.771 63.1092L264.247 82.5613Z" stroke="#09A49A"/>
<path d="M286.267 144.997V175.656H243.271V145.036L264.791 125.545L286.267 144.997Z" stroke="#09A49A"/>
<path d="M286.267 20.1268V50.7858H243.271V20.1662L264.791 0.674613L286.267 20.1268Z" stroke="#09A49A"/>
<path d="M98.6828 82.5613V113.22H55.6875V82.6008L77.2069 63.1092L98.6828 82.5613Z" stroke="#09A49A"/>
<path d="M120.702 144.997V175.656H77.707V145.036L99.2265 125.545L120.702 144.997Z" stroke="#09A49A"/>
<path d="M120.702 20.1268V50.7858H77.707V20.1662L99.2265 0.674613L120.702 20.1268Z" stroke="#09A49A"/>
<path d="M209.059 82.5613V113.22H166.063V82.6008L187.583 63.1092L209.059 82.5613Z" stroke="#09A49A"/>
<path d="M231.078 144.997V175.656H188.083V145.036L209.602 125.545L231.078 144.997Z" stroke="#09A49A"/>
<path d="M231.078 20.1268V50.7858H188.083V20.1662L209.602 0.674613L231.078 20.1268Z" stroke="#09A49A"/>
<path d="M43.4953 82.5613V113.22H0.5V82.6008L22.0194 63.1092L43.4953 82.5613Z" stroke="#09A49A"/>
<path d="M65.5149 144.997V175.656H22.5195V145.036L44.039 125.545L65.5149 144.997Z" stroke="#09A49A"/>
<path d="M65.5149 20.1268V50.7858H22.5195V20.1662L44.039 0.674613L65.5149 20.1268Z" stroke="#09A49A"/>
<path d="M319.435 82.5613V113.22H276.439V82.6008L297.959 63.1092L319.435 82.5613Z" stroke="#09A49A"/>
<path d="M374.456 82.6736V113.333H331.461V82.7131L352.98 63.2215L374.456 82.6736Z" stroke="#09A49A"/>
<path d="M341.454 144.997V175.656H298.459V145.036L319.978 125.545L341.454 144.997Z" stroke="#09A49A"/>
<path d="M341.454 20.1268V50.7858H298.459V20.1662L319.978 0.674613L341.454 20.1268Z" stroke="#09A49A"/>
<path d="M153.871 82.5613V113.22H110.876V82.6008L132.395 63.1092L153.871 82.5613Z" stroke="#09A49A"/>
<path d="M175.891 144.997V175.656H132.896V145.036L154.415 125.545L175.891 144.997Z" stroke="#09A49A"/>
<path d="M175.891 20.1268V50.7858H132.896V20.1662L154.415 0.674613L175.891 20.1268Z" stroke="#09A49A"/>
</g>
</svg>
