<svg width="218" height="132" viewBox="0 0 218 132" fill="none" xmlns="http://www.w3.org/2000/svg">
<path fill-rule="evenodd" clip-rule="evenodd" d="M104.288 1.72549C107.078 -0.575163 111.132 -0.575164 113.922 1.72549L148.526 30.2612C150.247 31.6805 151.239 33.785 151.231 36.0014L151.167 53.794V82.5608C151.167 86.6693 147.799 90 143.645 90H74.5217C70.3676 90 67 86.6693 67 82.5608V35.9574C67 33.7503 67.991 31.6571 69.705 30.2437L104.288 1.72549ZM109.105 30.1279L124.519 41.879V66.0241H93.6476V41.879L109.105 30.1279Z" fill="#FFC700"/>
<path d="M67.5446 124H75.8006C76.5926 124 77.0246 123.568 77.0246 122.776V121.36C77.0246 120.568 76.5926 120.136 75.8006 120.136H71.0966V109.624C71.0966 108.832 70.6646 108.4 69.8726 108.4H67.5446C66.7526 108.4 66.3206 108.832 66.3206 109.624V122.776C66.3206 123.568 66.7526 124 67.5446 124ZM89.0531 124.288C94.0211 124.288 97.7651 120.808 97.7651 116.2C97.7651 111.568 94.0211 108.112 89.0531 108.112C84.0851 108.112 80.3411 111.568 80.3411 116.2C80.3411 120.832 84.0851 124.288 89.0531 124.288ZM89.0531 119.968C86.9411 119.968 85.2371 118.408 85.2371 116.2C85.2371 113.992 86.9411 112.432 89.0531 112.432C91.1651 112.432 92.8691 113.992 92.8691 116.2C92.8691 118.408 91.1651 119.968 89.0531 119.968ZM116.92 122.776L112.144 115.312L116.752 109.624C117.352 108.904 116.92 108.4 116.104 108.4H112.936C112.12 108.4 111.736 108.904 111.16 109.624L107.776 113.896V109.624C107.776 108.832 107.344 108.4 106.552 108.4H104.224C103.432 108.4 103 108.832 103 109.624V122.776C103 123.568 103.432 124 104.224 124H106.552C107.344 124 107.776 123.568 107.776 122.776V119.224L108.688 118.168L111.448 122.776C111.928 123.568 112.36 124 113.2 124H116.272C117.088 124 117.424 123.568 116.92 122.776ZM137.485 122.776L131.125 109.48C130.741 108.664 130.165 108.256 129.325 108.256H129.037C128.221 108.256 127.645 108.664 127.261 109.48L120.901 122.776C120.541 123.544 120.973 124 121.789 124H124.597C125.437 124 125.581 123.568 125.893 122.776L126.325 121.672H131.893L132.301 122.776C132.613 123.568 132.757 124 133.573 124H136.597C137.413 124 137.845 123.544 137.485 122.776ZM127.573 118.528L129.181 114.52L130.693 118.528H127.573ZM143.506 124H151.762C152.554 124 152.986 123.568 152.986 122.776V121.36C152.986 120.568 152.554 120.136 151.762 120.136H147.058V109.624C147.058 108.832 146.626 108.4 145.834 108.4H143.506C142.714 108.4 142.282 108.832 142.282 109.624V122.776C142.282 123.568 142.714 124 143.506 124Z" fill="#FFC700"/>
</svg>
