<svg width="124" height="78" viewBox="0 0 124 78" fill="none" xmlns="http://www.w3.org/2000/svg">
<path d="M123.965 35.6212C123.959 35.103 123.837 34.5928 123.607 34.1291C123.377 33.6653 123.045 33.2602 122.637 32.9443C122.362 32.4439 122.042 31.97 121.681 31.5285L111.414 18.6241C110.442 17.4046 109.209 16.4205 107.808 15.7445C106.406 15.0684 104.872 14.7178 103.318 14.7184H89.322V11.2346C89.319 8.46366 88.223 5.80707 86.2746 3.84771C84.3263 1.88835 81.6846 0.786246 78.9291 0.783203H30.4291C29.5103 0.783203 28.6292 1.15025 27.9795 1.80359C27.3298 2.45693 26.9648 3.34304 26.9648 4.26701C26.9648 5.19097 27.3298 6.07709 27.9795 6.73043C28.6292 7.38377 29.5103 7.75081 30.4291 7.75081H78.9291C79.8477 7.75136 80.7286 8.11858 81.3781 8.7718C82.0277 9.42502 82.3929 10.3108 82.3934 11.2346V60.0079H64.5801C63.8247 57.0195 62.1005 54.3696 59.68 52.4768C57.2596 50.5841 54.2809 49.5565 51.2148 49.5565C48.1487 49.5565 45.1701 50.5841 42.7496 52.4768C40.3292 54.3696 38.605 57.0195 37.8496 60.0079H30.4291C29.5103 60.0079 28.6292 60.3749 27.9795 61.0282C27.3298 61.6816 26.9648 62.5677 26.9648 63.4917C26.9648 64.4156 27.3298 65.3017 27.9795 65.9551C28.6292 66.6084 29.5103 66.9755 30.4291 66.9755H37.8496C38.605 69.9638 40.3292 72.6137 42.7496 74.5065C45.1701 76.3992 48.1487 77.4268 51.2148 77.4268C54.2809 77.4268 57.2596 76.3992 59.68 74.5065C62.1005 72.6137 63.8247 69.9638 64.5801 66.9755H89.8139C90.586 70.011 92.3557 72.695 94.8357 74.5918C97.3157 76.4885 100.36 77.4866 103.476 77.424C106.591 77.3615 109.593 76.2419 111.996 74.2471C114.399 72.2522 116.06 69.4993 116.711 66.4351C118.809 65.7702 120.643 64.4517 121.947 62.6701C123.251 60.8885 123.957 58.7361 123.965 56.5241V38.0599C123.96 37.4918 123.91 36.9251 123.816 36.365C123.893 36.1236 123.943 35.8741 123.965 35.6212ZM103.318 21.686C103.836 21.6868 104.347 21.8046 104.814 22.0307C105.281 22.2568 105.691 22.5855 106.014 22.9924L113.289 32.1374H89.322V21.686H103.318ZM51.2148 70.4593C49.8445 70.4593 48.5049 70.0506 47.3655 69.285C46.2261 68.5194 45.3381 67.4312 44.8137 66.1581C44.2893 64.8849 44.1521 63.4839 44.4194 62.1323C44.6867 60.7808 45.3466 59.5393 46.3156 58.5648C47.2846 57.5904 48.5191 56.9268 49.8631 56.6579C51.2072 56.3891 52.6003 56.5271 53.8663 57.0544C55.1323 57.5818 56.2144 58.4748 56.9757 59.6207C57.7371 60.7665 58.1434 62.1136 58.1434 63.4917C58.1409 65.3388 57.4102 67.1096 56.1113 68.4158C54.8125 69.7219 53.0517 70.4568 51.2148 70.4593ZM103.179 70.4593C101.809 70.4593 100.469 70.0506 99.3298 69.285C98.1904 68.5194 97.3024 67.4312 96.778 66.1581C96.2536 64.8849 96.1163 63.4839 96.3837 62.1323C96.651 60.7808 97.3109 59.5393 98.2799 58.5648C99.2489 57.5904 100.483 56.9268 101.827 56.6579C103.171 56.3891 104.565 56.5271 105.831 57.0544C107.097 57.5818 108.179 58.4748 108.94 59.6207C109.701 60.7665 110.108 62.1136 110.108 63.4917C110.105 65.3388 109.374 67.1096 108.076 68.4158C106.777 69.7219 105.016 70.4568 103.179 70.4593ZM116.163 58.7749C115.173 55.974 113.314 53.5674 110.86 51.9102C108.406 50.253 105.487 49.4329 102.534 49.5711C99.5814 49.7092 96.751 50.7983 94.4606 52.6775C92.1702 54.5567 90.5412 57.1266 89.8139 60.0079H89.322V39.105H117.036V56.5241C117.026 57.3559 116.716 58.1558 116.163 58.7749Z" fill="#09A49A"/>
<path d="M3.46429 21.6864H51.2149C52.1337 21.6864 53.0149 21.3193 53.6646 20.666C54.3142 20.0126 54.6792 19.1265 54.6792 18.2026C54.6792 17.2786 54.3142 16.3925 53.6646 15.7391C53.0149 15.0858 52.1337 14.7188 51.2149 14.7188H3.46429C2.5455 14.7188 1.66435 15.0858 1.01467 15.7391C0.364986 16.3925 0 17.2786 0 18.2026C0 19.1265 0.364986 20.0126 1.01467 20.666C1.66435 21.3193 2.5455 21.6864 3.46429 21.6864Z" fill="#FFC700"/>
<path d="M16.4145 35.6209H40.8222C41.741 35.6209 42.6221 35.2539 43.2718 34.6005C43.9215 33.9472 44.2865 33.0611 44.2865 32.1371C44.2865 31.2132 43.9215 30.327 43.2718 29.6737C42.6221 29.0204 41.741 28.6533 40.8222 28.6533L16.4145 28.6533C15.4957 28.6533 14.6145 29.0204 13.9648 29.6737C13.3152 30.327 12.9502 31.2132 12.9502 32.1371C12.9502 33.0611 13.3152 33.9472 13.9648 34.6005C14.6145 35.2539 15.4957 35.6209 16.4145 35.6209Z" fill="#FF7A00"/>
</svg>
