<svg width="100" height="100" viewBox="0 0 100 100" fill="none" xmlns="http://www.w3.org/2000/svg">
<path fill-rule="evenodd" clip-rule="evenodd" d="M74.2803 31.6899C75.7374 33.1471 75.7374 35.5096 74.2803 36.9668L42.5638 68.6832C41.1067 70.1404 38.7441 70.1404 37.2869 68.6832L24.9735 56.3698C23.5163 54.9126 23.5163 52.5501 24.9735 51.0929C26.4307 49.6357 28.7932 49.6357 30.2504 51.0929L39.9254 60.7679L69.0033 31.6899C70.4605 30.2327 72.8231 30.2327 74.2803 31.6899Z" fill="#FFC700"/>
<path fill-rule="evenodd" clip-rule="evenodd" d="M50 92.5373C73.4927 92.5373 92.5373 73.4927 92.5373 50C92.5373 26.5073 73.4927 7.46269 50 7.46269C26.5073 7.46269 7.46269 26.5073 7.46269 50C7.46269 73.4927 26.5073 92.5373 50 92.5373ZM50 100C77.6142 100 100 77.6142 100 50C100 22.3858 77.6142 0 50 0C22.3858 0 0 22.3858 0 50C0 77.6142 22.3858 100 50 100Z" fill="#FFC700"/>
</svg>
